@startuml

package "Country Bounded Context" <<Rectangle>> {
    class Country

    class GetCountries {
        + invoke(): Countries
    }
    GetCountries ..> Country : use
}

package "Receiver Bounded Context" <<Rectangle>> {
    class Receiver

    class CreateReceiver {
        + invoke(): Receiver
    }
    CreateReceiver ..> Receiver : use
}

package "Transfer Bounded Context" <<Rectangle>> {
    class Transfer

    class TransferNumber

    class CreateTransfer {
        invoke(): Transfer
    }
    CreateTransfer ..> Transfer : use

    class SendTransfer {
        invoke(transfer: Transfer): TransferNumber
    }
    SendTransfer ..> Transfer
    SendTransfer ..> TransferNumber

    class ConfirmTransfer {
        invoke(transfer: Transfer): Status
    }
    ConfirmTransfer ..> Transfer
}

"Transfer Bounded Context" "Upstream" <.. "DownStream" "Country Bounded Context"
"Transfer Bounded Context" "Upstream" <.. "DownStream" "Receiver Bounded Context"



@enduml